<svg width="216" height="173" viewBox="0 0 216 173" fill="none" xmlns="http://www.w3.org/2000/svg">
<path d="M178.68 71.5C178.68 110.988 146.669 143 107.18 143C67.6921 143 35.6804 110.988 35.6804 71.5C35.6804 32.0116 67.6921 0 107.18 0C146.669 0 178.68 32.0116 178.68 71.5Z" fill="#F1F1F1"/>
<path d="M77.8266 76.9924C78.0193 72.5783 81.7539 69.1563 86.1679 69.349L142.115 71.7917C146.529 71.9844 149.951 75.7189 149.758 80.133L146.094 164.053C145.901 168.467 142.167 171.889 137.753 171.696L81.806 169.254C77.3919 169.061 73.9698 165.327 74.1626 160.912L77.8266 76.9924Z" fill="#EEEEEE"/>
<path fill-rule="evenodd" clip-rule="evenodd" d="M142.027 73.7898L86.0807 71.3471C82.7701 71.2025 79.9692 73.7691 79.8247 77.0796L76.1607 161C76.0161 164.31 78.5827 167.111 81.8932 167.256L137.84 169.698C141.15 169.843 143.951 167.276 144.096 163.966L147.76 80.0458C147.905 76.7352 145.338 73.9343 142.027 73.7898ZM86.1679 69.349C81.7539 69.1563 78.0193 72.5783 77.8266 76.9924L74.1626 160.912C73.9698 165.327 77.3919 169.061 81.806 169.254L137.753 171.696C142.167 171.889 145.901 168.467 146.094 164.053L149.758 80.133C149.951 75.7189 146.529 71.9844 142.115 71.7917L86.1679 69.349Z" fill="#999999"/>
<path d="M39.6826 72.9732C39.1059 68.5927 42.1895 64.5741 46.57 63.9974L102.091 56.6879C106.471 56.1112 110.49 59.1948 111.067 63.5753L122.031 146.857C122.608 151.237 119.524 155.256 115.144 155.832L59.6226 163.142C55.2421 163.719 51.2235 160.635 50.6468 156.255L39.6826 72.9732Z" fill="#FAFAFA"/>
<path fill-rule="evenodd" clip-rule="evenodd" d="M46.3089 62.0145L101.83 54.7051C107.305 53.9842 112.329 57.8386 113.049 63.3142L124.014 146.596C124.735 152.071 120.88 157.094 115.404 157.815L59.8836 165.125C54.408 165.846 49.3847 161.991 48.6639 156.516L37.6997 73.2342C36.9788 67.7586 40.8333 62.7354 46.3089 62.0145ZM46.5699 63.9974C42.1894 64.5741 39.1059 68.5927 39.6826 72.9732L50.6468 156.255C51.2235 160.635 55.242 163.719 59.6225 163.142L115.143 155.832C119.524 155.256 122.607 151.237 122.031 146.857L111.067 63.5753C110.49 59.1948 106.471 56.1112 102.091 56.6879L46.5699 63.9974Z" fill="#999999"/>
<path d="M39.6826 72.9731C39.1059 68.5927 42.1895 64.5741 46.57 63.9974L102.091 56.6879C106.471 56.1112 110.49 59.1948 111.067 63.5753L113.025 78.4469L41.6405 87.8448L39.6826 72.9731Z" fill="#EEEEEE"/>
<path d="M124.059 58.8388C124.881 58.7307 125.634 59.3089 125.742 60.1302V60.1302C125.851 60.9515 125.272 61.705 124.451 61.8132L117.511 62.7268C116.69 62.835 115.936 62.2568 115.828 61.4355V61.4355C115.72 60.6141 116.298 59.8606 117.119 59.7525L124.059 58.8388Z" fill="#999999"/>
<path d="M98.3458 43.5645C98.2377 42.7431 98.8159 41.9896 99.6372 41.8815V41.8815C100.459 41.7734 101.212 42.3515 101.32 43.1729L102.234 50.113C102.342 50.9343 101.764 51.6878 100.942 51.796V51.796C100.121 51.9041 99.3676 51.3259 99.2595 50.5046L98.3458 43.5645Z" fill="#999999"/>
<path d="M114.815 45.9963C115.319 45.3391 116.26 45.2151 116.918 45.7194V45.7194C117.575 46.2238 117.699 47.1654 117.195 47.8226L112.933 53.3761C112.429 54.0333 111.487 54.1573 110.83 53.653V53.653C110.173 53.1487 110.049 52.207 110.553 51.5498L114.815 45.9963Z" fill="#999999"/>
<path d="M49.3638 92.8798C49.2197 91.7847 49.9906 90.78 51.0857 90.6359L104.624 83.5874C105.719 83.4433 106.723 84.2142 106.868 85.3093V85.3093C107.012 86.4044 106.241 87.409 105.146 87.5532L51.6078 94.6016C50.5127 94.7458 49.508 93.9749 49.3638 92.8798V92.8798Z" fill="#DCDCDC"/>
<path d="M51.9742 112.709C51.83 111.614 52.6009 110.609 53.696 110.465L107.234 103.416C108.329 103.272 109.334 104.043 109.478 105.138V105.138C109.622 106.233 108.851 107.238 107.756 107.382L54.2181 114.431C53.123 114.575 52.1184 113.804 51.9742 112.709V112.709Z" fill="#DCDCDC"/>
<path d="M54.5848 132.538C54.4406 131.442 55.2115 130.438 56.3066 130.294L109.845 123.245C110.94 123.101 111.944 123.872 112.089 124.967V124.967C112.233 126.062 111.462 127.067 110.367 127.211L56.8287 134.259C55.7336 134.404 54.729 133.633 54.5848 132.538V132.538Z" fill="#DCDCDC"/>
<path d="M50.408 100.811C50.2638 99.7162 51.0347 98.7116 52.1299 98.5674L68.9844 96.3485C70.0795 96.2043 71.0842 96.9752 71.2284 98.0703V98.0703C71.3725 99.1654 70.6016 100.17 69.5065 100.314L52.652 102.533C51.5568 102.677 50.5522 101.906 50.408 100.811V100.811Z" fill="#EEEEEE"/>
<path d="M53.0185 120.64C52.8743 119.545 53.6452 118.54 54.7403 118.396L71.5949 116.177C72.69 116.033 73.6947 116.804 73.8388 117.899V117.899C73.983 118.994 73.2121 119.999 72.117 120.143L55.2624 122.362C54.1673 122.506 53.1627 121.735 53.0185 120.64V120.64Z" fill="#EEEEEE"/>
<path d="M55.629 140.469C55.4848 139.374 56.2557 138.369 57.3508 138.225L74.2054 136.006C75.3005 135.862 76.3051 136.633 76.4493 137.728V137.728C76.5935 138.823 75.8226 139.828 74.7275 139.972L57.8729 142.191C56.7778 142.335 55.7731 141.564 55.629 140.469V140.469Z" fill="#EEEEEE"/>
<path d="M25.5417 14.8594C25.6707 14.9349 25.8135 14.9485 25.9398 14.9092C26.0661 14.8698 26.1758 14.7774 26.2391 14.6419C26.366 14.3702 26.2594 14.0283 26.0005 13.877C25.3285 13.4835 25.0498 12.5898 25.379 11.884C25.6613 11.2796 25.703 10.5804 25.4955 9.91498C25.288 9.24959 24.8567 8.69792 24.2803 8.36126C24.0215 8.20989 23.7098 8.30711 23.5829 8.57877C23.456 8.85044 23.5626 9.19233 23.8214 9.3437C24.1471 9.53417 24.3916 9.84612 24.509 10.2226C24.6265 10.5992 24.6031 10.9946 24.443 11.3366C23.8605 12.5838 24.3535 14.1645 25.5417 14.8594Z" fill="#999999"/>
<path d="M36.3927 11.4752C36.5218 11.5507 36.6646 11.5643 36.7909 11.5249C36.9172 11.4855 37.0269 11.3932 37.0902 11.2577C37.2171 10.986 37.1104 10.6441 36.8516 10.4927C36.1796 10.0993 35.9008 9.20557 36.2301 8.49981C36.5124 7.89534 36.5541 7.19614 36.3466 6.53075C36.1391 5.86536 35.7078 5.31369 35.1314 4.97703C34.8726 4.82566 34.5608 4.92288 34.434 5.19454C34.3071 5.46621 34.4137 5.8081 34.6725 5.95947C34.9982 6.14995 35.2427 6.4619 35.3601 6.83841C35.4775 7.21492 35.4542 7.61041 35.2941 7.9524C34.7115 9.19956 35.2045 10.7803 36.3927 11.4752Z" fill="#999999"/>
<path d="M29.9549 9.92146C30.0839 9.99696 30.2268 10.0106 30.353 9.97121C30.4793 9.93183 30.589 9.83944 30.6523 9.70395C30.7792 9.43228 30.6726 9.09039 30.4137 8.93902C29.7417 8.54553 29.463 7.65185 29.7922 6.9461C30.0745 6.34162 30.1162 5.64243 29.9087 4.97704C29.7012 4.31164 29.2699 3.75997 28.6935 3.42331C28.4347 3.27194 28.123 3.36916 27.9961 3.64082C27.8692 3.91249 27.9758 4.25438 28.2346 4.40575C28.5603 4.59623 28.8048 4.90818 28.9223 5.28469C29.0397 5.66121 29.0164 6.05669 28.8562 6.39868C28.2737 7.64584 28.7667 9.22655 29.9549 9.92146Z" fill="#999999"/>
<path d="M30.3085 18.0056C30.3446 17.9944 30.3797 17.9787 30.4135 17.9586C31.0681 17.5621 31.7739 17.2447 32.5118 17.0146C32.5137 17.0139 32.5157 17.0133 32.5182 17.0126C32.7904 16.9276 32.936 16.6169 32.8429 16.3183C32.7496 16.0191 32.4535 15.8455 32.1807 15.9306C32.1788 15.9312 32.1763 15.932 32.1738 15.9328C31.3635 16.1855 30.5876 16.5349 29.8673 16.9709C29.6219 17.1192 29.5454 17.4607 29.696 17.7336C29.8268 17.9689 30.0831 18.0759 30.3085 18.0056Z" fill="#999999"/>
<path d="M25.4305 29.304C25.4626 29.3011 25.4931 29.2945 25.5222 29.2855C25.7559 29.2125 25.9066 28.9649 25.8687 28.6906C25.4198 25.4484 26.2582 22.1774 28.1117 19.9421C28.2986 19.717 28.2725 19.3607 28.0537 19.1469C27.8345 18.9334 27.5057 18.9427 27.3188 19.1678C25.2721 21.6361 24.3448 25.2364 24.8377 28.7985C24.8802 29.1082 25.1455 29.3341 25.4305 29.304Z" fill="#999999"/>
<path d="M47.7927 21.5224C45.1037 16.0447 39.5858 12.7469 34.0317 13.2634C34.0131 13.1742 33.9988 13.0831 33.9719 12.9971C33.5068 11.5057 32.022 10.6373 30.6622 11.0614C29.3023 11.4855 28.5744 13.0439 29.0396 14.5354C29.0664 14.6214 29.1059 14.7046 29.1418 14.7884C24.2787 17.5208 21.6138 23.3707 22.5154 29.4058C21.6841 30.3673 20.8503 31.6608 21.1798 32.7173C22.0377 35.4681 30.265 34.9293 37.4109 32.7007C44.5569 30.472 51.6319 26.2384 50.7739 23.4876C50.4444 22.4311 49.0232 21.8409 47.7927 21.5224ZM30.0582 14.3204C30.0464 14.2896 30.0357 14.2586 30.0262 14.2283C29.7472 13.3335 30.184 12.3983 30.9998 12.1439C31.8156 11.8894 32.7066 12.4105 32.9856 13.3053C32.9952 13.3361 33.0039 13.3673 33.0117 13.3993C32.9877 13.4038 32.9641 13.4099 32.9406 13.4143C32.7645 13.4467 32.5893 13.4853 32.4136 13.5258C32.349 13.5407 32.2841 13.5532 32.2198 13.5691C31.9816 13.6279 31.7438 13.6932 31.5066 13.7672C31.2693 13.8412 31.0366 13.9227 30.8072 14.0096C30.7452 14.0331 30.6848 14.0597 30.6232 14.0842C30.4556 14.1508 30.2896 14.2191 30.1262 14.2921C30.1034 14.3021 30.0804 14.3099 30.0582 14.3204ZM30.1128 15.5487C30.3641 15.4228 30.6207 15.3084 30.8806 15.2012C30.9338 15.1793 30.9872 15.1579 31.0406 15.1365C31.5697 14.9275 32.1138 14.7579 32.6678 14.629C32.7239 14.6162 32.78 14.6035 32.8363 14.5913C33.111 14.5317 33.3872 14.48 33.6655 14.4407C39.0698 13.6901 44.5334 16.9111 47.0328 22.331C47.1097 22.4976 47.1823 22.6661 47.2529 22.8352C47.277 22.8936 47.303 22.9508 47.3266 23.0093C47.4206 23.2429 47.5097 23.4781 47.5913 23.7156C40.4569 28.1019 32.2918 30.6484 23.9288 31.0954C23.8615 30.8534 23.8005 30.6095 23.745 30.3638C23.7312 30.3022 23.7196 30.2406 23.7068 30.1787C23.6686 29.9989 23.6325 29.819 23.6012 29.6388C22.576 23.7591 25.2398 18.0028 30.1128 15.5487ZM37.0735 31.6187C28.6412 34.2486 22.5427 33.6165 22.1663 32.4096C22.1017 32.2024 22.1931 31.6729 22.7915 30.8328C22.7992 30.8642 22.8096 30.8942 22.8173 30.9256C22.893 31.2273 22.9742 31.5296 23.0684 31.8315L23.2013 32.2578L23.6109 32.2399C28.0161 32.0413 32.371 31.2719 36.5581 29.9661C40.7452 28.6602 44.7655 26.8181 48.5025 24.4768L48.8496 24.2587L48.7166 23.8324C48.6225 23.5305 48.5177 23.2362 48.4083 22.9444C48.3967 22.9142 48.3882 22.8836 48.3767 22.8534C49.3467 23.2044 49.7228 23.588 49.7875 23.7952C50.1639 25.0021 45.5059 28.9889 37.0735 31.6187Z" fill="#999999"/>
<path d="M209.486 47.2376C210.631 45.5879 211.328 43.4138 211.312 41.0292L210.353 41.0355C210.382 45.4559 207.747 49.0804 204.431 49.2813C204.054 49.0468 203.631 48.8898 203.181 48.828C202.95 47.0718 201.537 45.7197 199.838 45.7309C198.793 45.7379 197.834 46.27 197.213 47.1309C196.593 46.2952 195.636 45.7588 194.565 45.7659C192.715 45.7782 191.22 47.4019 191.234 49.3857C191.239 50.1777 191.486 50.9255 191.92 51.5352C190.441 51.9182 189.342 53.3512 189.354 55.0518C189.361 56.1784 189.854 57.1815 190.617 57.8363C189.337 58.3506 188.426 59.6765 188.436 61.2255C188.44 61.8381 188.588 62.4241 188.864 62.9506C188.036 63.6114 187.5 64.6681 187.508 65.8574C187.521 67.8412 189.037 69.445 190.887 69.4327C192.088 69.4247 193.136 68.7358 193.722 67.7127C194.291 68.1417 194.974 68.3777 195.674 68.373C197.018 68.3641 198.17 67.5033 198.698 66.2745C199.224 66.619 199.829 66.8036 200.457 66.7994C201.949 66.7895 203.209 65.7306 203.634 64.2805C204.124 64.5635 204.673 64.7156 205.237 64.7119C207.087 64.6996 208.582 63.0758 208.569 61.092C208.563 60.3108 208.322 59.5903 207.922 59.0024C208.887 58.3479 209.501 57.1977 209.493 55.9462C209.48 53.9624 207.98 52.3467 206.114 52.375C206.114 52.3734 206.114 52.3724 206.114 52.3709C206.108 51.5429 205.839 50.7835 205.395 50.1779C206.557 49.9143 207.62 49.292 208.517 48.401C208.854 51.7688 211.531 54.3908 214.756 54.3694L215.235 54.3662L215.232 53.8523C215.209 50.3601 212.677 47.5063 209.486 47.2376ZM205.117 52.8467C205.117 52.8483 205.116 52.8498 205.116 52.8514C205.107 52.9018 205.091 52.9492 205.08 52.9986C205.06 53.0866 205.04 53.1746 205.012 53.2586C204.989 53.3266 204.96 53.391 204.932 53.456C204.906 53.5178 204.879 53.5792 204.849 53.6385C204.814 53.7055 204.775 53.7705 204.735 53.834C204.703 53.8846 204.668 53.9337 204.633 53.9817C204.587 54.0432 204.541 54.1041 204.49 54.161C204.449 54.207 204.405 54.2484 204.361 54.2908C204.31 54.341 204.26 54.3928 204.204 54.4378C204.105 54.5182 204.002 54.5918 203.891 54.6553C203.861 54.6729 203.828 54.6845 203.797 54.7006C203.704 54.7485 203.609 54.7928 203.509 54.8279C203.473 54.841 203.434 54.85 203.397 54.8611C203.279 54.8958 203.16 54.9269 203.035 54.9421C203.023 54.935 203.01 54.9299 202.998 54.9228C202.767 54.783 202.519 54.6721 202.257 54.5936C202.222 54.5831 202.187 54.5746 202.151 54.565C202.053 54.5395 201.953 54.5186 201.852 54.5023C201.815 54.4963 201.778 54.4894 201.741 54.4845C201.61 54.4684 201.478 54.458 201.344 54.4584C201.341 54.4584 201.339 54.4579 201.336 54.4579C201.116 54.2831 200.929 54.0715 200.778 53.8351L200.747 53.7839C200.556 53.4675 200.434 53.1173 200.387 52.7429L200.378 52.6828C200.369 52.593 200.362 52.5015 200.362 52.409C200.352 50.9921 201.42 49.8322 202.741 49.8234C204.063 49.8146 205.146 50.9603 205.155 52.3772C205.156 52.5376 205.142 52.6944 205.117 52.8467ZM203.457 59.2792C203.415 59.3643 203.366 59.4453 203.315 59.5243C203.299 59.5491 203.283 59.5744 203.266 59.5991C203.22 59.6647 203.17 59.7267 203.118 59.7872C203.091 59.8182 203.066 59.8503 203.038 59.8797C202.99 59.9309 202.938 59.9775 202.886 60.0247C202.851 60.0562 202.816 60.0889 202.779 60.1184C202.728 60.1593 202.673 60.1952 202.619 60.232C202.577 60.26 202.536 60.2896 202.492 60.3146C202.479 60.3219 202.465 60.3276 202.452 60.3344C202.445 60.3288 202.437 60.3247 202.429 60.3191C202.158 60.102 201.855 59.9287 201.53 59.807C201.508 59.7989 201.488 59.7903 201.467 59.7827C201.315 59.7298 201.158 59.6887 200.997 59.6589C200.967 59.6534 200.937 59.649 200.906 59.6446C200.744 59.62 200.579 59.6031 200.409 59.6042C200.234 59.6054 200.059 59.6214 199.887 59.6519C199.889 59.6349 199.888 59.6179 199.89 59.601C199.913 59.4328 199.928 59.2636 199.927 59.0934C199.926 58.9531 199.915 58.8155 199.9 58.6794C199.895 58.6331 199.886 58.5875 199.879 58.5412C199.866 58.4514 199.85 58.3626 199.83 58.2748C199.819 58.2235 199.806 58.1722 199.792 58.1214C199.769 58.0347 199.742 57.9506 199.713 57.8665C199.698 57.8234 199.684 57.7793 199.667 57.7368C199.619 57.6112 199.565 57.4892 199.503 57.3714C199.503 57.3704 199.502 57.3693 199.502 57.3683C199.527 57.3486 199.548 57.3233 199.572 57.3026C199.676 57.215 199.776 57.1239 199.868 57.0251C199.891 57.0003 199.912 56.974 199.934 56.9486C200.03 56.8401 200.119 56.7269 200.201 56.6071C200.215 56.5859 200.229 56.5648 200.242 56.5436C200.329 56.412 200.406 56.2748 200.475 56.1314C200.482 56.1175 200.489 56.1031 200.495 56.0891C200.569 55.9314 200.632 55.7691 200.683 55.6001C200.683 55.5981 200.684 55.5965 200.685 55.5945C200.904 55.5242 201.124 55.4877 201.341 55.4863C201.488 55.4853 201.63 55.5034 201.771 55.5302C201.812 55.5382 201.854 55.5487 201.895 55.5587C201.998 55.5842 202.099 55.6175 202.197 55.6569C202.233 55.6716 202.271 55.6842 202.307 55.7009C202.437 55.7617 202.563 55.8318 202.68 55.9153L202.684 55.9179C202.79 55.9938 202.885 56.0836 202.979 56.176C203.069 56.2658 203.149 56.3645 203.225 56.4663C203.25 56.4995 203.278 56.5286 203.3 56.5634C203.381 56.6837 203.448 56.8122 203.509 56.9444C203.519 56.9675 203.533 56.988 203.543 57.011C203.606 57.1607 203.653 57.3166 203.688 57.4768C203.691 57.488 203.695 57.4983 203.698 57.5096C203.732 57.6738 203.749 57.8428 203.751 58.0129L203.742 58.1934C203.724 58.5651 203.63 58.9193 203.477 59.2375C203.471 59.2514 203.465 59.2653 203.457 59.2792ZM196.794 61.3988C196.693 61.3589 196.59 61.3246 196.484 61.2955C196.456 61.2875 196.428 61.2799 196.399 61.2729C196.301 61.2489 196.202 61.23 196.101 61.2153C196.071 61.2109 196.041 61.2049 196.011 61.201C195.885 61.1864 195.756 61.177 195.626 61.1778C195.489 61.1787 195.348 61.1905 195.197 61.2141C195.18 61.2013 195.164 61.1886 195.147 61.1754C195.146 61.0587 195.139 60.9426 195.128 60.8275C195.12 60.75 195.107 60.674 195.094 60.5975C195.088 60.5615 195.085 60.5251 195.078 60.4897C195.061 60.3952 195.037 60.3028 195.013 60.211C195.008 60.1946 195.005 60.1777 195.001 60.1612C194.973 60.0638 194.94 59.9689 194.906 59.8751C194.902 59.8643 194.898 59.853 194.894 59.8423C194.858 59.7484 194.818 59.6572 194.775 59.5676C194.769 59.5563 194.764 59.545 194.759 59.5337C194.717 59.4472 194.67 59.3637 194.621 59.2818C194.613 59.2669 194.605 59.2516 194.596 59.2372C194.548 59.1594 194.497 59.0853 194.444 59.0116C194.431 58.9937 194.419 58.9753 194.406 58.9574C194.354 58.8878 194.298 58.8214 194.241 58.7559C194.229 58.7422 194.219 58.7268 194.206 58.713C194.233 58.5278 194.279 58.3466 194.344 58.1714C194.477 58.0919 194.602 58.0001 194.723 57.9021C194.734 57.8933 194.745 57.8845 194.756 57.8757C194.996 57.6773 195.209 57.4456 195.391 57.1859C195.4 57.174 195.408 57.1621 195.416 57.1497C195.504 57.0207 195.587 56.8865 195.659 56.7452C195.67 56.74 195.681 56.7347 195.692 56.7295C195.817 56.6763 195.944 56.6338 196.074 56.6042C196.095 56.5994 196.117 56.5962 196.139 56.5919C196.276 56.5648 196.414 56.5469 196.554 56.546C196.707 56.545 196.855 56.563 197 56.5913C197.018 56.5948 197.038 56.5973 197.056 56.6012C197.193 56.6317 197.326 56.6765 197.454 56.7312C197.476 56.7403 197.497 56.7499 197.518 56.7596C197.644 56.8178 197.764 56.8864 197.878 56.9658C197.895 56.9781 197.912 56.9923 197.93 57.0051C198.031 57.0805 198.127 57.1646 198.216 57.2555C198.232 57.2719 198.249 57.2856 198.264 57.3025C198.349 57.3934 198.423 57.4942 198.494 57.5975C198.534 57.6543 198.569 57.7137 198.603 57.7731C198.647 57.8494 198.688 57.9278 198.724 58.0092C198.749 58.0641 198.773 58.1194 198.794 58.1763C198.83 58.2743 198.859 58.3753 198.884 58.4785C198.896 58.5267 198.91 58.5739 198.919 58.6227C198.948 58.7777 198.967 58.9364 198.968 59.0998C198.969 59.2545 198.953 59.4093 198.926 59.5632C198.913 59.6331 198.89 59.7027 198.872 59.7722C198.846 59.8685 198.826 59.9647 198.789 60.06C198.245 60.3859 197.801 60.8771 197.499 61.4743C197.397 61.5223 197.299 61.5609 197.206 61.5909C197.09 61.5258 196.97 61.4696 196.847 61.419C196.83 61.4119 196.812 61.4059 196.794 61.3988ZM196.065 55.0073C196.064 54.8475 196.05 54.6913 196.029 54.5373C196.025 54.5034 196.02 54.47 196.014 54.4366C195.991 54.2893 195.962 54.1451 195.922 54.004C195.92 53.9968 195.919 53.9896 195.917 53.9824C195.873 53.827 195.817 53.6768 195.755 53.5307C195.745 53.5097 195.735 53.4892 195.726 53.4677C195.668 53.3385 195.603 53.2136 195.531 53.0933C195.524 53.081 195.518 53.0666 195.51 53.0543C195.58 52.9465 195.659 52.8416 195.746 52.7413C195.772 52.7309 195.797 52.7173 195.824 52.7058C195.879 52.6824 195.934 52.6573 195.988 52.6307C196.032 52.6089 196.076 52.586 196.119 52.562C196.174 52.5324 196.227 52.5012 196.279 52.4679C196.321 52.442 196.362 52.4145 196.403 52.3859C196.453 52.3517 196.502 52.3159 196.549 52.2791C196.591 52.2464 196.632 52.2127 196.673 52.1785C196.716 52.1418 196.758 52.1045 196.799 52.0662C196.82 52.0465 196.843 52.0289 196.863 52.0087C197.176 51.9151 197.491 51.9007 197.794 51.9409C197.894 51.9541 197.993 51.9724 198.09 51.999C198.127 52.0091 198.163 52.0206 198.199 52.0322C198.306 52.0675 198.411 52.11 198.513 52.1612C198.531 52.1703 198.551 52.1789 198.569 52.1886C198.823 52.3257 199.056 52.5107 199.254 52.7402L199.285 52.7754C199.343 52.8465 199.402 52.9175 199.453 52.9963C199.46 53.0441 199.472 53.0903 199.482 53.137C199.501 53.2355 199.524 53.3325 199.551 53.4279C199.573 53.5069 199.595 53.5859 199.623 53.6634C199.644 53.7239 199.669 53.7823 199.693 53.8412C199.718 53.9002 199.743 53.9581 199.77 54.016C199.799 54.0775 199.83 54.1379 199.862 54.1973C199.869 54.2106 199.875 54.225 199.882 54.2383C199.89 54.3143 199.895 54.3909 199.896 54.468C199.897 54.6406 199.879 54.8099 199.849 54.975L199.826 55.08C199.707 55.6148 199.432 56.0869 199.051 56.4364C199.039 56.4478 199.026 56.4587 199.014 56.4701C198.982 56.4975 198.945 56.5173 198.912 56.5432C198.838 56.4666 198.762 56.3926 198.683 56.3232C198.602 56.2528 198.518 56.1871 198.432 56.1254C198.43 56.1239 198.429 56.1224 198.427 56.1209C198.155 55.9263 197.86 55.7767 197.549 55.6749C197.548 55.6744 197.546 55.6739 197.545 55.6734C197.452 55.6432 197.358 55.6186 197.262 55.5971C197.248 55.5941 197.235 55.5896 197.221 55.5866C197.133 55.5682 197.044 55.5559 196.954 55.5447C196.932 55.5418 196.91 55.5368 196.887 55.5343C196.775 55.5228 196.661 55.5173 196.547 55.5181C196.391 55.5191 196.236 55.5361 196.083 55.5597C196.065 55.5624 196.046 55.5615 196.028 55.5647C196.03 55.5477 196.029 55.5308 196.031 55.5138C196.051 55.3482 196.066 55.1795 196.065 55.0073ZM197.74 48.1322C198.15 47.2974 198.956 46.7647 199.845 46.7588C201.016 46.751 202 47.6506 202.215 48.8421C202.198 48.8453 202.182 48.8521 202.165 48.8553C202.016 48.8835 201.87 48.9195 201.729 48.9682C201.72 48.9713 201.711 48.976 201.702 48.9792C201.568 49.0268 201.44 49.0847 201.314 49.1493C201.283 49.1649 201.253 49.1811 201.222 49.1977C201.093 49.2695 200.967 49.3479 200.848 49.4361C200.834 49.4459 200.822 49.4573 200.809 49.4672C200.701 49.5496 200.599 49.6397 200.502 49.7355C200.477 49.7593 200.453 49.7831 200.428 49.8079C200.325 49.915 200.227 50.0282 200.137 50.1485C200.123 50.1661 200.112 50.1852 200.099 50.2033C200.021 50.3127 199.949 50.4268 199.882 50.5455C199.866 50.5749 199.849 50.6038 199.833 50.6342C199.762 50.7693 199.699 50.909 199.644 51.0538C199.635 51.0796 199.627 51.1058 199.618 51.1316C199.573 51.2604 199.535 51.3922 199.504 51.5271C199.499 51.5487 199.49 51.5683 199.486 51.5899C199.234 51.3901 198.957 51.2347 198.665 51.1179C198.637 51.1067 198.61 51.0972 198.581 51.0871C198.445 51.0366 198.305 50.9959 198.163 50.965C198.135 50.959 198.109 50.9514 198.082 50.9465C198.052 50.941 198.023 50.9309 197.993 50.926C197.901 50.8053 197.822 50.6799 197.755 50.5513C197.759 50.5395 197.761 50.5266 197.764 50.5148C197.818 50.3448 197.861 50.1698 197.89 49.9892C197.895 49.9594 197.898 49.9295 197.903 49.8997C197.929 49.7176 197.946 49.5319 197.944 49.3412C197.943 49.1506 197.924 48.9652 197.896 48.7829C197.892 48.7526 197.888 48.7228 197.883 48.693C197.851 48.5128 197.806 48.3384 197.749 48.1686C197.745 48.1563 197.744 48.144 197.74 48.1322ZM194.572 46.7938C195.557 46.7872 196.409 47.4235 196.783 48.3344C196.841 48.4779 196.884 48.6256 196.917 48.7755C196.921 48.7929 196.929 48.8088 196.932 48.8268C196.967 48.9972 196.985 49.1713 196.986 49.3476C196.987 49.5239 196.971 49.6982 196.939 49.8691C196.936 49.8871 196.929 49.9025 196.925 49.9206C196.894 50.0708 196.853 50.2191 196.796 50.3634C196.622 50.802 196.337 51.1765 195.98 51.4507C195.955 51.4699 195.93 51.4891 195.905 51.5067C195.795 51.5846 195.679 51.6542 195.558 51.7121C195.537 51.722 195.515 51.7298 195.493 51.7397C195.218 51.8598 194.92 51.9311 194.606 51.9332C194.534 51.9337 194.464 51.9295 194.394 51.9223C194.382 51.9152 194.37 51.9091 194.358 51.902C194.298 51.8654 194.237 51.8318 194.175 51.7994C194.142 51.7821 194.109 51.7654 194.077 51.7491C194.013 51.7187 193.949 51.6909 193.884 51.6646C193.852 51.6519 193.82 51.6393 193.788 51.6277C193.718 51.6019 193.647 51.5788 193.575 51.5582C193.548 51.5506 193.522 51.5436 193.496 51.5371C193.417 51.5166 193.337 51.4986 193.256 51.4842C193.248 51.4827 193.242 51.4807 193.234 51.4797C192.586 51.0019 192.198 50.2243 192.192 49.3794C192.183 47.9624 193.25 46.8025 194.572 46.7938ZM190.312 55.0455C190.303 53.6285 191.371 52.4686 192.692 52.4599C192.833 52.4589 192.97 52.4776 193.105 52.5018C193.144 52.5088 193.183 52.5152 193.221 52.5242C193.344 52.5532 193.462 52.592 193.577 52.6401C193.609 52.6537 193.642 52.6684 193.674 52.6836C193.796 52.7419 193.915 52.8069 194.025 52.8853L194.039 52.8945C194.267 53.059 194.463 53.2689 194.628 53.5053C194.664 53.5575 194.698 53.6112 194.731 53.6655C194.779 53.7479 194.823 53.834 194.863 53.9221C194.886 53.9728 194.909 54.0236 194.929 54.0758C194.968 54.1789 194.997 54.2861 195.024 54.3949C195.034 54.4401 195.049 54.4842 195.057 54.5299C195.086 54.6869 195.105 54.8482 195.106 55.0137C195.107 55.1725 195.09 55.3268 195.065 55.4781C195.061 55.5048 195.058 55.5316 195.053 55.5578C195.028 55.686 194.99 55.809 194.948 55.9296C194.93 55.9806 194.911 56.0311 194.89 56.0811C194.861 56.1496 194.826 56.2136 194.792 56.2791C194.755 56.3492 194.721 56.4214 194.678 56.4875C194.64 56.5479 194.593 56.6011 194.549 56.6574C194.459 56.7747 194.359 56.8828 194.251 56.9812C194.199 57.0283 194.151 57.079 194.095 57.121C194.033 57.1681 193.966 57.2056 193.9 57.2461C193.553 57.4622 193.156 57.5964 192.726 57.5993C191.405 57.6081 190.322 56.4624 190.312 55.0455ZM189.703 62.4588C189.503 62.0814 189.397 61.6591 189.395 61.2191C189.385 59.8022 190.453 58.6423 191.774 58.6335C192.407 58.6293 192.982 58.8949 193.413 59.3237C193.503 59.4131 193.583 59.5117 193.658 59.6135C193.683 59.6468 193.712 59.6764 193.735 59.7112C193.815 59.8304 193.882 59.9584 193.942 60.0901C193.952 60.1137 193.967 60.1352 193.977 60.1593C194.039 60.3079 194.086 60.4639 194.122 60.6224C194.124 60.6342 194.129 60.6455 194.132 60.6573C194.167 60.8303 194.187 61.008 194.188 61.1874C194.189 61.3061 194.18 61.4274 194.162 61.5545C193.921 61.6836 193.699 61.85 193.493 62.0369C193.453 62.0727 193.41 62.1053 193.372 62.1436C193.308 62.2078 193.25 62.2791 193.19 62.3489C193.138 62.4088 193.084 62.4673 193.036 62.5308C192.988 62.5959 192.945 62.665 192.901 62.7337C192.866 62.7879 192.825 62.838 192.793 62.8942C192.782 62.8861 192.77 62.8805 192.759 62.8729C192.642 62.7863 192.519 62.7074 192.391 62.6368C192.354 62.616 192.315 62.5978 192.277 62.5785C192.165 62.5222 192.05 62.4721 191.932 62.4292C191.905 62.4191 191.879 62.4069 191.851 62.3978C191.711 62.3515 191.567 62.3175 191.42 62.2907C191.382 62.2838 191.344 62.2784 191.306 62.273C191.152 62.2514 190.998 62.2365 190.839 62.2375C190.66 62.2387 190.485 62.2594 190.314 62.2898C190.286 62.2946 190.257 62.2984 190.23 62.3042C190.061 62.3388 189.897 62.3882 189.738 62.4488C189.726 62.453 189.714 62.4541 189.703 62.4588ZM190.88 68.4048C189.559 68.4136 188.476 67.2679 188.467 65.851C188.46 64.8241 189.022 63.9384 189.834 63.5224C189.896 63.4912 189.958 63.463 190.021 63.4379C190.087 63.4112 190.154 63.3897 190.222 63.3692C190.298 63.3471 190.375 63.3245 190.452 63.3107C190.498 63.3021 190.547 63.3003 190.594 63.2943C190.916 63.2577 191.24 63.288 191.548 63.3861C191.578 63.3957 191.607 63.4043 191.636 63.4149C191.725 63.4472 191.813 63.4861 191.898 63.5298C191.948 63.5557 191.996 63.5836 192.043 63.6131C192.11 63.6533 192.176 63.6934 192.239 63.7403C192.311 63.7953 192.378 63.8571 192.444 63.9204C192.482 63.9556 192.523 63.9862 192.558 64.0245C192.606 64.0755 192.644 64.1354 192.688 64.1912C192.749 64.2694 192.812 64.3466 192.863 64.431C192.899 64.4899 192.927 64.554 192.959 64.616C192.999 64.6953 193.043 64.7737 193.075 64.8573C193.107 64.9393 193.128 65.027 193.152 65.1137C193.171 65.1835 193.196 65.2517 193.21 65.323C193.241 65.4832 193.259 65.6491 193.26 65.8192C193.261 65.9821 193.244 66.1405 193.218 66.2954C193.203 66.3798 193.178 66.4627 193.155 66.5461C193.131 66.6352 193.113 66.7263 193.08 66.8113L193.076 66.8232C192.718 67.7455 191.87 68.3982 190.88 68.4048ZM195.667 67.3451C195.089 67.349 194.546 67.1357 194.11 66.7392C194.112 66.7294 194.113 66.7192 194.115 66.7089C194.144 66.5864 194.166 66.4618 194.183 66.3353C194.187 66.306 194.192 66.2766 194.195 66.2473C194.21 66.1048 194.22 65.9604 194.219 65.8128C194.218 65.6314 194.2 65.4542 194.174 65.2802C194.169 65.2473 194.165 65.2149 194.159 65.1821C194.13 65.0106 194.09 64.8433 194.038 64.6813C194.031 64.6582 194.022 64.6356 194.014 64.6131C193.896 64.2659 193.731 63.9447 193.525 63.6562C193.522 63.6516 193.519 63.646 193.516 63.6414C193.543 63.5836 193.565 63.5223 193.596 63.4671C193.611 63.4398 193.625 63.4119 193.641 63.3856C193.724 63.2489 193.817 63.1198 193.923 63.0024C193.93 62.9936 193.939 62.9864 193.946 62.9781C194.058 62.8576 194.18 62.7468 194.313 62.6513L194.314 62.6498C194.454 62.5497 194.604 62.4644 194.762 62.3965L194.798 62.3814C194.929 62.3271 195.064 62.285 195.203 62.2564C195.265 62.2436 195.322 62.235 195.377 62.2275C195.462 62.2166 195.547 62.2063 195.633 62.2057C195.777 62.2048 195.917 62.2234 196.054 62.2487C196.097 62.2566 196.141 62.2661 196.183 62.2771C196.286 62.3026 196.386 62.3359 196.483 62.3748C196.518 62.389 196.554 62.3985 196.588 62.4147C196.857 62.5384 197.1 62.713 197.308 62.9275C197.393 63.0154 197.465 63.113 197.536 63.2113C197.563 63.2481 197.595 63.2792 197.62 63.3176C197.675 63.4026 197.716 63.4958 197.761 63.5865C197.935 63.939 198.044 64.334 198.047 64.7595C198.048 64.9153 198.031 65.066 198.007 65.2141C198.002 65.2455 197.999 65.2764 197.993 65.3078C197.765 66.4637 196.813 67.3375 195.667 67.3451ZM200.45 65.7715C199.913 65.7751 199.399 65.5873 198.977 65.2385C198.978 65.2283 198.978 65.218 198.979 65.2077C198.995 65.0585 199.006 64.9074 199.005 64.7532C199.005 64.635 198.998 64.5178 198.986 64.4018C198.983 64.3709 198.978 64.3412 198.974 64.3103C198.964 64.2246 198.952 64.1393 198.936 64.0552C198.93 64.0244 198.923 63.9941 198.916 63.9633C198.898 63.8801 198.878 63.798 198.855 63.717C198.846 63.6888 198.838 63.6611 198.829 63.6334C198.803 63.5518 198.775 63.4718 198.745 63.3924C198.734 63.3657 198.723 63.3391 198.712 63.3124C198.68 63.236 198.646 63.1612 198.609 63.087C198.595 63.0583 198.58 63.0301 198.565 63.0024C198.529 62.9354 198.492 62.8698 198.452 62.8053C198.431 62.7726 198.412 62.7393 198.39 62.707C198.354 62.6528 198.316 62.6001 198.277 62.5474C198.248 62.5086 198.22 62.4692 198.189 62.4314C198.179 62.4181 198.17 62.4042 198.159 62.3915C198.179 62.3271 198.207 62.2678 198.231 62.206L198.285 62.0874C198.514 61.5791 198.899 61.1602 199.369 60.9084L199.494 60.8412C199.529 60.8256 199.563 60.8079 199.599 60.7943C199.675 60.764 199.752 60.7419 199.829 60.7208C199.868 60.7097 199.908 60.6982 199.948 60.6892C200.018 60.6738 200.089 60.6636 200.159 60.6554C200.205 60.6499 200.252 60.6455 200.299 60.6426C200.366 60.6391 200.433 60.6382 200.5 60.6403C200.592 60.6433 200.682 60.654 200.771 60.6678C200.866 60.6826 200.958 60.7035 201.051 60.7302C201.12 60.7503 201.189 60.7709 201.256 60.7972C201.319 60.8219 201.381 60.8503 201.442 60.8807C201.513 60.9162 201.581 60.9564 201.648 60.9991C201.694 61.0281 201.742 61.054 201.786 61.0861C201.883 61.1579 201.973 61.239 202.059 61.3248C202.15 61.4157 202.23 61.5154 202.306 61.6172C202.332 61.6525 202.362 61.6836 202.386 61.7205C202.449 61.8151 202.499 61.9171 202.549 62.019C202.574 62.0713 202.606 62.1189 202.629 62.1732C202.669 62.2696 202.693 62.3727 202.721 62.4743C202.739 62.5379 202.764 62.5979 202.778 62.6636C202.81 62.8335 202.829 63.0081 202.83 63.1859C202.839 64.6029 201.772 65.7628 200.45 65.7715ZM205.23 63.684C204.71 63.6874 204.206 63.5083 203.789 63.1754C203.789 63.1729 203.788 63.1708 203.788 63.1688C203.787 62.9987 203.771 62.8322 203.747 62.6684C203.743 62.6387 203.739 62.6089 203.734 62.5791C203.675 62.2259 203.57 61.8904 203.423 61.5805C203.42 61.5753 203.418 61.5702 203.416 61.5651C203.337 61.4027 203.249 61.2475 203.149 61.1002C203.149 61.0992 203.148 61.0981 203.148 61.0971C203.376 60.9424 203.581 60.7571 203.766 60.5508C203.798 60.5151 203.828 60.4784 203.859 60.4417C203.93 60.3554 203.997 60.2655 204.06 60.1726C204.088 60.1313 204.118 60.092 204.144 60.0497C204.216 59.9326 204.282 59.8108 204.341 59.6856C204.376 59.6123 204.405 59.5361 204.436 59.4603C204.459 59.4016 204.481 59.3423 204.502 59.2821C204.533 59.1893 204.563 59.0966 204.587 59.0009C204.591 58.9859 204.593 58.971 204.597 58.9561C204.622 58.8542 204.647 58.7522 204.663 58.6478C204.842 58.5973 205.066 58.5454 205.196 58.5445C205.355 58.5435 205.51 58.561 205.66 58.5918C205.726 58.6053 205.789 58.6311 205.854 58.6507C205.935 58.6753 206.018 58.6964 206.096 58.7298C206.173 58.7627 206.245 58.8074 206.318 58.8491C206.378 58.8831 206.44 58.9125 206.497 58.9517C206.574 59.0052 206.646 59.0694 206.718 59.1327C207.253 59.6005 207.605 60.3023 207.61 61.0984C207.619 62.5153 206.552 63.6752 205.23 63.684ZM208.534 55.9526C208.541 56.9208 208.029 57.8108 207.237 58.2499C207.228 58.2427 207.218 58.2382 207.21 58.2315C206.938 58.0144 206.636 57.8411 206.31 57.7194C206.289 57.7113 206.269 57.7027 206.247 57.6952C206.095 57.6422 205.939 57.6011 205.778 57.5713C205.748 57.5659 205.717 57.5615 205.687 57.557C205.524 57.5324 205.358 57.5155 205.189 57.5167C205.178 57.5167 205.135 57.5211 205.08 57.5277C204.946 57.5332 204.813 57.5448 204.681 57.5678C204.679 57.557 204.676 57.5463 204.674 57.5355C204.655 57.3999 204.63 57.2675 204.598 57.1377C204.592 57.1146 204.587 57.0915 204.58 57.0684C204.497 56.758 204.376 56.4658 204.223 56.196C204.215 56.1811 204.207 56.1668 204.198 56.1525C204.118 56.0163 204.033 55.8837 203.937 55.7605C203.95 55.7553 203.962 55.7475 203.975 55.7423C204.078 55.7 204.177 55.652 204.274 55.6C204.289 55.5917 204.303 55.5833 204.318 55.575C204.423 55.5157 204.525 55.4513 204.623 55.3813C204.625 55.3797 204.627 55.3787 204.629 55.3771C205.274 54.9134 205.759 54.2199 205.98 53.4053C207.352 53.3037 208.525 54.4858 208.534 55.9526ZM209.466 48.2626C211.974 48.5014 213.989 50.6333 214.246 53.3192C211.737 53.0804 209.722 50.9484 209.466 48.2626Z" fill="#999999"/>
<path d="M24.4221 101.771C21.7365 99.5845 18.0533 99.361 15.256 101.215C14.6777 101.599 14.1518 102.068 13.6946 102.603C12.8914 103.158 12.2037 103.851 11.6798 104.653C10.5768 106.336 9.04493 107.717 7.25605 108.638C6.36368 109.097 5.56672 109.742 4.91494 110.532C2.80162 113.095 2.6228 116.754 4.46983 119.637C5.86516 121.814 8.10098 123.19 10.6038 123.412C12.0555 123.541 13.3691 124.182 14.3023 125.218L18.0484 129.376C19.2115 130.667 21.1706 130.804 22.4152 129.683L30.8789 122.057L32.3274 120.752C33.5724 119.63 33.6389 117.667 32.4759 116.377L28.8754 112.381C27.9149 111.315 27.416 109.888 27.47 108.365C27.5597 105.825 26.4494 103.422 24.4221 101.771ZM7.66 119.186C7.56991 119.267 7.4476 119.313 7.31486 119.303C7.0487 119.285 6.84089 119.054 6.84992 118.787L7.10396 111.285C7.11299 111.019 7.33539 110.818 7.60155 110.837C7.86771 110.856 8.07552 111.086 8.06649 111.353L7.81245 118.855C7.80795 118.988 7.75009 119.105 7.66 119.186ZM11.1583 120.799C11.1538 120.932 11.0959 121.049 11.0058 121.131C10.9158 121.212 10.7934 121.257 10.6607 121.248C10.3945 121.229 10.1867 120.998 10.1958 120.732L10.5422 110.502C10.5512 110.235 10.7736 110.035 11.0398 110.053C11.3059 110.072 11.5137 110.303 11.5047 110.569L11.1583 120.799ZM13.5532 122.335L14.1305 105.285C14.1395 105.018 14.3619 104.818 14.6281 104.837C14.8943 104.855 15.1021 105.086 15.093 105.353L14.5157 122.403C14.5112 122.536 14.4533 122.653 14.3632 122.734C14.2731 122.815 14.1508 122.861 14.0181 122.851C13.7523 122.832 13.5445 122.602 13.5532 122.335ZM17.9917 126.407C17.9016 126.488 17.7793 126.534 17.6466 126.525C17.3804 126.506 17.1726 126.275 17.1816 126.008L17.9206 104.184C17.9297 103.918 18.1521 103.717 18.4182 103.736C18.6844 103.755 18.8922 103.985 18.8832 104.252L18.1441 126.076C18.1396 126.209 18.0818 126.326 17.9917 126.407ZM21.3491 128.011C21.259 128.092 21.1367 128.137 21.0039 128.128C20.7378 128.109 20.53 127.879 20.539 127.612L21.278 105.788C21.2871 105.521 21.5095 105.321 21.7756 105.339C22.0418 105.358 22.2496 105.589 22.2406 105.855L21.5015 127.68C21.497 127.813 21.4392 127.929 21.3491 128.011ZM24.8681 124.84C24.778 124.921 24.6557 124.967 24.523 124.957C24.2568 124.938 24.049 124.708 24.0581 124.441L24.4045 114.211C24.4135 113.944 24.6359 113.744 24.9021 113.763C25.1682 113.781 25.376 114.012 25.367 114.279L25.0206 124.509C25.0161 124.642 24.9582 124.759 24.8681 124.84ZM28.3641 122.351C28.274 122.432 28.1517 122.478 28.0189 122.469C27.7528 122.45 27.545 122.219 27.554 121.953L27.6926 117.86C27.7016 117.594 27.924 117.393 28.1902 117.412C28.4563 117.431 28.6641 117.661 28.6551 117.928L28.5165 122.02C28.512 122.153 28.4542 122.27 28.3641 122.351ZM26.5072 108.295C26.4437 110.077 27.0349 111.753 28.1712 113.014L31.7717 117.01C32.5089 117.829 32.5283 119.039 31.8578 119.828C31.8576 119.793 31.854 119.758 31.8532 119.723C31.8519 119.68 31.8507 119.636 31.8474 119.592C31.8431 119.538 31.8363 119.485 31.8296 119.431C31.8243 119.388 31.8193 119.344 31.8119 119.301C31.8028 119.247 31.7906 119.193 31.7784 119.139C31.7689 119.097 31.7605 119.055 31.7493 119.013C31.7347 118.959 31.7168 118.905 31.6995 118.851C31.6862 118.81 31.6743 118.769 31.6596 118.729C31.6396 118.675 31.6158 118.621 31.5931 118.568C31.5763 118.529 31.5613 118.49 31.5428 118.452C31.516 118.397 31.4861 118.343 31.4558 118.289C31.4365 118.254 31.419 118.218 31.398 118.184C31.3621 118.124 31.3218 118.066 31.2818 118.009C31.2629 117.981 31.2461 117.953 31.2259 117.926C31.1639 117.842 31.0978 117.761 31.0264 117.681L27.4266 113.686C26.8262 113.02 26.4062 112.212 26.1885 111.329C26.058 110.798 26.0005 110.241 26.0205 109.669C26.1106 107.13 24.9999 104.727 22.973 103.076C22.7817 102.921 22.5839 102.778 22.3832 102.642C22.3211 102.6 22.2576 102.562 22.1945 102.521C22.0515 102.43 21.9071 102.343 21.7608 102.262C21.6884 102.222 21.616 102.184 21.5429 102.146C21.3947 102.07 21.2446 102 21.093 101.934C21.0264 101.904 20.9606 101.874 20.8929 101.846C20.6893 101.764 20.4841 101.689 20.2758 101.624C20.2616 101.62 20.2481 101.614 20.234 101.609C20.0094 101.541 19.7824 101.485 19.5541 101.436C19.4927 101.424 19.4313 101.415 19.3699 101.403C19.2018 101.372 19.0335 101.346 18.8642 101.326C18.7901 101.317 18.7163 101.311 18.6422 101.304C18.4772 101.289 18.3127 101.281 18.1477 101.277C18.0799 101.275 18.0124 101.272 17.9449 101.272C17.735 101.273 17.5256 101.282 17.3165 101.3C17.3001 101.301 17.2838 101.3 17.2673 101.302C19.4439 100.539 21.9253 100.961 23.8317 102.514C25.6113 103.962 26.5859 106.069 26.5072 108.295Z" fill="#999999"/>
</svg>
