<svg width="14" height="18" viewBox="0 0 14 18" fill="none" xmlns="http://www.w3.org/2000/svg">
<path fill-rule="evenodd" clip-rule="evenodd" d="M6.9752 0.458252C5.64073 0.458252 4.53186 0.505822 3.63233 0.689914C2.72149 0.87632 1.97081 1.21332 1.40683 1.83116C0.849497 2.44171 0.539399 3.2561 0.361657 4.26588C0.184233 5.27385 0.128535 6.53938 0.128535 8.10742C0.128535 8.71258 0.127508 9.28078 0.126545 9.81375C0.12199 12.3343 0.118858 14.0672 0.232505 15.1973C0.300312 15.8717 0.417239 16.444 0.674338 16.8551C0.812602 17.0762 0.996226 17.2594 1.23466 17.3813C1.46882 17.5011 1.71605 17.5416 1.9527 17.5416C2.49335 17.5416 3.01758 17.2442 3.44074 16.9502C3.85383 16.6631 4.28867 16.2915 4.69989 15.9401L4.79722 15.857C5.25131 15.4694 5.67781 15.1115 6.07806 14.8487C6.49323 14.5762 6.78507 14.4716 6.9752 14.4716C7.16533 14.4716 7.45718 14.5762 7.87235 14.8487C8.27259 15.1115 8.69909 15.4694 9.15319 15.857L9.25051 15.9401C9.66173 16.2915 10.0966 16.6631 10.5097 16.9502C10.9328 17.2442 11.4571 17.5416 11.9977 17.5416C12.2344 17.5416 12.4816 17.5011 12.7157 17.3813C12.9542 17.2594 13.1378 17.0762 13.2761 16.8551C13.5332 16.444 13.6501 15.8717 13.7179 15.1973C13.8315 14.0672 13.8284 12.3343 13.8239 9.81379V9.81375V9.81339C13.8229 9.28052 13.8219 8.71245 13.8219 8.10742C13.8219 6.53938 13.7662 5.27385 13.5887 4.26588C13.411 3.2561 13.1009 2.44171 12.5436 1.83116C11.9796 1.21332 11.2289 0.87632 10.3181 0.689914C9.41854 0.505822 8.30968 0.458252 6.9752 0.458252ZM1.37854 8.10742C1.37854 6.5517 1.43523 5.37734 1.59273 4.48258C1.74991 3.58962 1.99726 3.03844 2.33003 2.67389C2.65616 2.31662 3.12824 2.06899 3.88295 1.91453C4.64896 1.75777 5.64843 1.70825 6.9752 1.70825C8.30198 1.70825 9.30144 1.75777 10.0675 1.91453C10.8222 2.06899 11.2942 2.31662 11.6204 2.67389C11.9531 3.03844 12.2005 3.58962 12.3577 4.48258C12.5152 5.37734 12.5719 6.5517 12.5719 8.10742C12.5719 8.72711 12.5728 9.30433 12.5738 9.84185V9.84237V9.84238C12.578 12.3638 12.5808 14.0116 12.4742 15.0723C12.4084 15.726 12.3087 16.0445 12.2163 16.1923C12.1798 16.2507 12.1554 16.2639 12.1464 16.2685C12.1332 16.2753 12.0936 16.2916 11.9977 16.2916C11.8738 16.2916 11.6282 16.2052 11.2229 15.9236C10.8636 15.674 10.475 15.342 10.0482 14.9775L9.96472 14.9062C9.51964 14.5263 9.0349 14.1167 8.55837 13.8038C8.09677 13.5008 7.54632 13.2216 6.9752 13.2216C6.40408 13.2216 5.85363 13.5008 5.39203 13.8038C4.91551 14.1167 4.43076 14.5263 3.98569 14.9062L3.90215 14.9775L3.90213 14.9776C3.47542 15.342 3.08676 15.674 2.72748 15.9236C2.3222 16.2052 2.07664 16.2916 1.9527 16.2916C1.85685 16.2916 1.81723 16.2753 1.80398 16.2685C1.795 16.2639 1.77064 16.2507 1.73414 16.1923C1.64171 16.0445 1.54197 15.726 1.47623 15.0723C1.36957 14.0116 1.37237 12.3638 1.37664 9.84238V9.84236C1.37756 9.3047 1.37854 8.72731 1.37854 8.10742ZM4.11873 6.05633C3.77355 6.05633 3.49373 6.33616 3.49373 6.68133C3.49373 7.02651 3.77355 7.30633 4.11873 7.30633H9.83123C10.1764 7.30633 10.4562 7.02651 10.4562 6.68133C10.4562 6.33616 10.1764 6.05633 9.83123 6.05633H4.11873Z" fill="#F5484A"/>
</svg>
