<svg width="42" height="28" viewBox="0 0 42 28" fill="none" xmlns="http://www.w3.org/2000/svg">
<path d="M11.08 9C12.3333 9 13.3733 9.25333 14.2 9.76C15.0267 10.2667 15.44 10.9067 15.44 11.68C15.44 12.4267 14.9333 13.0133 13.92 13.44C12.1867 11.7867 10.56 10.96 9.04 10.96C7.54667 10.96 6.32 11.5333 5.36 12.68C4.4 13.8 3.92 15.4533 3.92 17.64C3.92 19.8267 4.56 21.5467 5.84 22.8C7.12 24.0267 8.61333 24.64 10.32 24.64C12.1067 24.64 13.64 24.2133 14.92 23.36C15.3733 23.0667 15.64 22.92 15.72 22.92C16.04 22.92 16.2 23.08 16.2 23.4C16.2 23.72 15.9067 24.2 15.32 24.84C14.7333 25.4533 13.8533 26.0533 12.68 26.64C11.5333 27.2267 10.3333 27.52 9.08 27.52C6.46667 27.52 4.38667 26.72 2.84 25.12C1.32 23.52 0.56 21.64 0.56 19.48C0.56 16.5733 1.61333 14.1067 3.72 12.08C5.85333 10.0267 8.30667 9 11.08 9ZM19.6413 0.0799985L24.8813 0.16H29.4813C32.8946 0.16 35.4546 0.826666 37.1613 2.16C38.8679 3.46667 39.7213 5.08 39.7213 7C39.7213 8.41333 39.1746 9.68 38.0813 10.8C36.9879 11.8933 35.6146 12.6 33.9613 12.92V13.08C36.3613 13.5067 38.2546 14.36 39.6413 15.64C41.0279 16.92 41.7213 18.3733 41.7213 20C41.7213 21.9467 40.6946 23.6 38.6413 24.96C36.5879 26.32 33.8146 27 30.3213 27H26.4413L19.6413 27.08C19.4279 27.08 19.3213 26.8533 19.3213 26.4C19.3213 25.9467 19.4279 25.72 19.6413 25.72H21.3613C22.0279 25.72 22.4679 25.6 22.6813 25.36C22.8946 25.0933 23.0013 24.6 23.0013 23.88V4.96C23.0013 2.61333 22.7213 1.44 22.1613 1.44H19.6413C19.4279 1.44 19.3213 1.21333 19.3213 0.759999C19.3213 0.306665 19.4279 0.0799985 19.6413 0.0799985ZM27.1213 21.88C27.1213 24.2267 27.4146 25.4 28.0013 25.4H30.0413C32.2546 25.4 33.9479 24.9067 35.1213 23.92C36.2946 22.9333 36.8813 21.6267 36.8813 20C36.8813 18.24 36.2679 16.84 35.0413 15.8C33.6546 14.6 31.0146 13.92 27.1213 13.76V21.88ZM27.1213 3.6V12.16C27.7613 12.2667 28.4679 12.32 29.2413 12.32C31.1879 12.32 32.6946 11.84 33.7613 10.88C34.8546 9.89333 35.4013 8.66667 35.4013 7.2C35.4013 5.73333 34.8146 4.46667 33.6413 3.4C32.4679 2.30667 30.6813 1.76 28.2813 1.76C27.5079 1.76 27.1213 2.37333 27.1213 3.6Z" fill="#F5484A"/>
</svg>
