<svg width="17" height="15" viewBox="0 0 17 15" fill="none" xmlns="http://www.w3.org/2000/svg">
<path d="M5.66667 2.58545C5.63902 2.55803 5.63902 2.55803 5.61138 2.53061C5.47317 2.39351 5.41789 2.33867 5.41789 2.22899C5.41789 2.0919 5.47317 2.06448 5.61138 1.92738C5.66667 1.87254 5.74959 1.79028 5.80488 1.73545C5.88781 1.62577 5.8878 1.48867 5.77724 1.40641C5.66667 1.32415 5.52846 1.32415 5.44553 1.43383C5.39024 1.48867 5.33496 1.54351 5.27968 1.59835C5.11382 1.76286 4.94797 1.92738 4.94797 2.25641C4.94797 2.58545 5.11382 2.74996 5.27968 2.91448C5.30732 2.9419 5.30732 2.9419 5.33496 2.96932C5.50081 3.10641 5.61138 3.21609 5.61138 3.46286C5.61138 3.73706 5.47317 3.90157 5.30732 4.06609C5.27968 4.09351 5.27967 4.09351 5.25203 4.12093C5.16911 4.23061 5.16911 4.3677 5.27968 4.44996C5.33496 4.47738 5.39024 4.5048 5.44553 4.5048C5.50081 4.5048 5.58374 4.47738 5.63902 4.42254C5.66667 4.39512 5.66667 4.39512 5.69431 4.3677C5.88781 4.17577 6.13659 3.90157 6.13659 3.43545C6.10894 2.96932 5.86016 2.74996 5.66667 2.58545Z" fill="#A9A9A9" stroke="#A9A9A9" stroke-width="0.2"/>
<path d="M9.03901 1.51611C9.01137 1.48869 9.01137 1.48869 8.98373 1.46127C8.84552 1.32417 8.79023 1.26934 8.79023 1.15966C8.79023 1.02256 8.84552 0.995142 8.98373 0.858045C9.03901 0.803206 9.12194 0.720948 9.17722 0.666109C9.26015 0.556432 9.26015 0.419335 9.14958 0.337077C9.03901 0.254819 8.9008 0.254819 8.81787 0.364496C8.76259 0.419335 8.7073 0.474174 8.65202 0.529013C8.48617 0.693529 8.32031 0.858045 8.32031 1.18708C8.32031 1.51611 8.48617 1.68063 8.65202 1.84514C8.67966 1.87256 8.67966 1.87256 8.7073 1.89998C8.87316 2.03708 8.98373 2.14675 8.98373 2.39353C8.98373 2.66772 8.84552 2.83224 8.67966 2.99675C8.65202 3.02417 8.65202 3.02417 8.62438 3.05159C8.54145 3.16127 8.54145 3.29837 8.65202 3.38063C8.7073 3.40804 8.76259 3.43546 8.81787 3.43546C8.87316 3.43546 8.95608 3.40804 9.01137 3.35321C9.03901 3.32579 9.03901 3.32579 9.06665 3.29837C9.26015 3.10643 9.50893 2.83224 9.50893 2.36611C9.48129 1.89998 9.23251 1.68063 9.03901 1.51611Z" fill="#A9A9A9" stroke="#A9A9A9" stroke-width="0.2"/>
<path d="M12.439 2.58545C12.4114 2.55803 12.4114 2.55803 12.3838 2.53061C12.2455 2.39351 12.1903 2.33867 12.1903 2.22899C12.1903 2.0919 12.2455 2.06448 12.3838 1.92738C12.439 1.87254 12.522 1.79028 12.5772 1.73545C12.6602 1.62577 12.6602 1.48867 12.5496 1.40641C12.439 1.32415 12.3008 1.32415 12.2179 1.43383C12.1626 1.48867 12.1073 1.54351 12.052 1.59835C11.8862 1.76286 11.7203 1.92738 11.7203 2.25641C11.7203 2.58545 11.8862 2.74996 12.052 2.91448C12.0797 2.9419 12.0797 2.9419 12.1073 2.96932C12.2732 3.10641 12.3838 3.21609 12.3838 3.46286C12.3838 3.73706 12.2455 3.90157 12.0797 4.06609C12.052 4.09351 12.052 4.09351 12.0244 4.12093C11.9415 4.23061 11.9415 4.3677 12.052 4.44996C12.1073 4.47738 12.1626 4.5048 12.2179 4.5048C12.2732 4.5048 12.3561 4.47738 12.4114 4.42254C12.439 4.39512 12.439 4.39512 12.4667 4.3677C12.6602 4.17577 12.909 3.90157 12.909 3.43545C12.8537 2.96932 12.6049 2.74996 12.439 2.58545Z" fill="#A9A9A9" stroke="#A9A9A9" stroke-width="0.2"/>
<path d="M16.8065 12.5661H0.995118C0.856907 12.5661 0.746338 12.6758 0.746338 12.8129V13.3887C0.746338 14.0193 1.27154 14.5403 1.90731 14.5403H15.8943C16.5301 14.5403 17.0553 14.0193 17.0553 13.3887V12.8129C17.0553 12.6758 16.9447 12.5661 16.8065 12.5661ZM16.5577 13.3887C16.5577 13.7726 16.2537 14.0742 15.8667 14.0742H1.90731C1.52032 14.0742 1.21626 13.7726 1.21626 13.3887V13.0596H16.5577V13.3887Z" fill="#A9A9A9" stroke="#A9A9A9" stroke-width="0.2"/>
<path d="M13.2959 7.41127C12.3285 6.47901 11.0846 5.90321 9.78537 5.71127L10.2553 5.24514C10.3935 5.10804 10.4488 4.88869 10.3659 4.69675C10.2829 4.50482 10.1171 4.39514 9.89594 4.39514H7.90569C7.7122 4.39514 7.5187 4.50482 7.43577 4.69675C7.35285 4.88869 7.40813 5.08063 7.54634 5.24514L8.01626 5.71127C6.68943 5.90321 5.47317 6.47901 4.47805 7.41127C3.28943 8.53546 2.59838 10.0709 2.54309 11.6887C2.54309 11.8258 2.65366 11.9355 2.76423 11.9355C2.90244 11.9355 3.01301 11.8258 3.01301 11.7161C3.06829 10.208 3.70407 8.80966 4.80976 7.76772C5.83252 6.78063 7.15935 6.23224 8.54147 6.14998C8.56911 6.14998 8.59675 6.14998 8.62439 6.14998C8.65203 6.14998 8.67968 6.14998 8.70732 6.14998C8.73496 6.14998 8.73496 6.14998 8.7626 6.14998C8.79025 6.14998 8.84553 6.14998 8.87317 6.14998C8.90081 6.14998 8.9561 6.14998 8.98374 6.14998C9.01138 6.14998 9.01138 6.14998 9.03903 6.14998C9.06667 6.14998 9.09431 6.14998 9.12195 6.14998C9.14959 6.14998 9.17724 6.14998 9.20488 6.14998C10.6146 6.23224 11.9138 6.78063 12.9366 7.76772C14.0423 8.80966 14.6781 10.208 14.7333 11.7161C14.7333 11.8532 14.8439 11.9629 14.9821 11.9355C15.1203 11.9355 15.2309 11.8258 15.2033 11.6887C15.1756 10.0435 14.4846 8.53546 13.2959 7.41127ZM9.14959 5.65643H9.12195C9.09431 5.65643 9.06667 5.65643 9.03903 5.65643C8.98374 5.65643 8.9561 5.65643 8.90081 5.65643C8.84553 5.65643 8.81789 5.65643 8.7626 5.65643C8.73496 5.65643 8.70732 5.65643 8.67968 5.65643H8.65203L7.90569 4.91611H9.89594L9.14959 5.65643Z" fill="#A9A9A9" stroke="#A9A9A9" stroke-width="0.2"/>
</svg>
