<svg width="17" height="18" viewBox="0 0 17 18" fill="none" xmlns="http://www.w3.org/2000/svg">
<path d="M8.5 16.6146C4.78833 16.6146 1.77083 13.5971 1.77083 9.88542C1.77083 6.17375 4.78833 3.15625 8.5 3.15625C12.2117 3.15625 15.2292 6.17375 15.2292 9.88542C15.2292 13.5971 12.2117 16.6146 8.5 16.6146ZM8.5 4.21875C5.37625 4.21875 2.83333 6.76167 2.83333 9.88542C2.83333 13.0092 5.37625 15.5521 8.5 15.5521C11.6237 15.5521 14.1667 13.0092 14.1667 9.88542C14.1667 6.76167 11.6237 4.21875 8.5 4.21875Z" fill="#D9D9D9"/>
<path d="M8.5 10.2395C8.20958 10.2395 7.96875 9.99871 7.96875 9.70829V6.16663C7.96875 5.87621 8.20958 5.63538 8.5 5.63538C8.79042 5.63538 9.03125 5.87621 9.03125 6.16663V9.70829C9.03125 9.99871 8.79042 10.2395 8.5 10.2395Z" fill="#D9D9D9"/>
<path d="M10.625 2.44788H6.375C6.08458 2.44788 5.84375 2.20704 5.84375 1.91663C5.84375 1.62621 6.08458 1.38538 6.375 1.38538H10.625C10.9154 1.38538 11.1562 1.62621 11.1562 1.91663C11.1562 2.20704 10.9154 2.44788 10.625 2.44788Z" fill="#D9D9D9"/>
</svg>
