<svg width="16" height="20" viewBox="0 0 16 20" fill="none" xmlns="http://www.w3.org/2000/svg">
<path fill-rule="evenodd" clip-rule="evenodd" d="M7.97362 0.888916C6.55018 0.888916 5.36739 0.939657 4.40789 1.13602C3.43633 1.33486 2.6356 1.69432 2.03402 2.35335C1.43954 3.00461 1.10877 3.87329 0.919174 4.95039C0.729922 6.02556 0.670511 7.37546 0.670511 9.04803C0.670511 9.69354 0.669416 10.2996 0.668388 10.8681C0.663529 13.5567 0.660188 15.4051 0.781412 16.6106C0.853739 17.3299 0.978461 17.9404 1.2527 18.3789C1.40018 18.6147 1.59605 18.8101 1.85038 18.9402C2.10015 19.068 2.36386 19.1111 2.61629 19.1111C3.19298 19.1111 3.75216 18.7939 4.20353 18.4803C4.64416 18.1741 5.10798 17.7777 5.5466 17.4029L5.54662 17.4029L5.65044 17.3142C6.1348 16.9008 6.58974 16.5191 7.01667 16.2388C7.45952 15.948 7.77081 15.8365 7.97362 15.8365C8.17643 15.8365 8.48773 15.948 8.93058 16.2388C9.3575 16.5191 9.81244 16.9008 10.2968 17.3142L10.4006 17.4029L10.4007 17.4029C10.8393 17.7778 11.3031 18.1741 11.7437 18.4803C12.1951 18.7939 12.7543 19.1111 13.331 19.1111C13.5834 19.1111 13.8471 19.068 14.0969 18.9402C14.3512 18.8101 14.5471 18.6147 14.6945 18.3789C14.9688 17.9404 15.0935 17.3299 15.1658 16.6106C15.2871 15.4051 15.2837 13.5567 15.2789 10.8681V10.8681C15.2778 10.2996 15.2767 9.69354 15.2767 9.04803C15.2767 7.37546 15.2173 6.02556 15.0281 4.95039C14.8385 3.87329 14.5077 3.00461 13.9132 2.35335C13.3116 1.69432 12.5109 1.33486 11.5394 1.13602C10.5799 0.939657 9.39706 0.888916 7.97362 0.888916ZM2.00384 9.04803C2.00384 7.3886 2.06432 6.13594 2.23232 5.18153C2.39998 4.22904 2.66382 3.64111 3.01878 3.25226C3.36664 2.87118 3.8702 2.60703 4.67522 2.44228C5.4923 2.27506 6.5584 2.22225 7.97362 2.22225C9.38885 2.22225 10.4549 2.27506 11.272 2.44228C12.077 2.60703 12.5806 2.87118 12.9285 3.25226C13.2834 3.64111 13.5473 4.22904 13.7149 5.18153C13.8829 6.13594 13.9434 7.3886 13.9434 9.04803C13.9434 9.7089 13.9444 10.3245 13.9454 10.8977L13.9454 10.8986C13.95 13.5882 13.953 15.3458 13.8392 16.4772C13.7691 17.1745 13.6627 17.5143 13.5641 17.6719C13.5252 17.7342 13.4992 17.7483 13.4896 17.7532C13.4755 17.7604 13.4332 17.7778 13.331 17.7778C13.1988 17.7778 12.9368 17.6857 12.5045 17.3853C12.1213 17.119 11.7067 16.7649 11.2515 16.3762L11.1624 16.3001C10.6877 15.8948 10.1706 15.4579 9.66234 15.1242C9.16996 14.8009 8.58281 14.5031 7.97362 14.5031C7.36443 14.5031 6.77728 14.8009 6.28491 15.1242C5.77661 15.4579 5.25955 15.8948 4.78481 16.3001L4.6957 16.3762L4.69565 16.3762C4.2405 16.765 3.82594 17.1191 3.44272 17.3853C3.01042 17.6857 2.74849 17.7778 2.61629 17.7778C2.51405 17.7778 2.47179 17.7604 2.45765 17.7532C2.44807 17.7483 2.42209 17.7342 2.38315 17.6719C2.28456 17.5143 2.17817 17.1745 2.10805 16.4772C1.99428 15.3458 1.99726 13.5882 2.00183 10.8987C2.0028 10.3251 2.00384 9.70926 2.00384 9.04803ZM4.92672 6.8602C4.55853 6.8602 4.26005 7.15868 4.26005 7.52687C4.26005 7.89506 4.55853 8.19354 4.92672 8.19354H11.0201C11.3882 8.19354 11.6867 7.89506 11.6867 7.52687C11.6867 7.15868 11.3882 6.8602 11.0201 6.8602H4.92672Z" fill="#2E3E5C"/>
</svg>
