        <svg
          width="16"
          height="4"
          viewBox="0 0 16 4"
          fill="none"
          xmlns="http://www.w3.org/2000/svg"
        >
          <path
            fill-rule="evenodd"
            clip-rule="evenodd"
            d="M2.16667 0.333374C1.24619 0.333374 0.5 1.07957 0.5 2.00004C0.5 2.92052 1.24619 3.66671 2.16667 3.66671C3.08714 3.66671 3.83333 2.92052 3.83333 2.00004C3.83333 1.07957 3.08714 0.333374 2.16667 0.333374ZM6.33333 2.00004C6.33333 1.07957 7.07952 0.333374 8 0.333374C8.92047 0.333374 9.66667 1.07957 9.66667 2.00004C9.66667 2.92052 8.92047 3.66671 8 3.66671C7.07952 3.66671 6.33333 2.92052 6.33333 2.00004ZM12.1667 2.00004C12.1667 1.07957 12.9129 0.333374 13.8333 0.333374C14.7538 0.333374 15.5 1.07957 15.5 2.00004C15.5 2.92052 14.7538 3.66671 13.8333 3.66671C12.9129 3.66671 12.1667 2.92052 12.1667 2.00004Z"
            fill="#303030"
          />
        </svg>